<mxfile host="app.diagrams.net" modified="2024-05-28T14:33:48.477Z" agent="Mozilla/5.0 (Windows NT 10.0; Win64; x64) AppleWebKit/537.36 (KHTML, like Gecko) Chrome/125.0.0.0 Safari/537.36" etag="72uas0scKK3osRg2b4E2" version="24.4.9" type="google">
  <diagram name="爬蟲資料確認循序圖" id="h2zrZuEtpmVf0U5pq_tw">
    <mxGraphModel grid="1" page="0" gridSize="10" guides="1" tooltips="1" connect="1" arrows="1" fold="1" pageScale="1" pageWidth="827" pageHeight="1169" math="0" shadow="0">
      <root>
        <mxCell id="0" />
        <mxCell id="1" parent="0" />
        <mxCell id="bg2msgem7Z4zpFXIcjBG-39" value=":Backend" style="shape=umlLifeline;perimeter=lifelinePerimeter;whiteSpace=wrap;html=1;container=1;dropTarget=0;collapsible=0;recursiveResize=0;outlineConnect=0;portConstraint=eastwest;newEdgeStyle={&quot;curved&quot;:0,&quot;rounded&quot;:0};" vertex="1" parent="1">
          <mxGeometry x="-598.41" y="30" width="100" height="1140" as="geometry" />
        </mxCell>
        <mxCell id="bg2msgem7Z4zpFXIcjBG-40" value="" style="html=1;points=[[0,0,0,0,5],[0,1,0,0,-5],[1,0,0,0,5],[1,1,0,0,-5]];perimeter=orthogonalPerimeter;outlineConnect=0;targetShapes=umlLifeline;portConstraint=eastwest;newEdgeStyle={&quot;curved&quot;:0,&quot;rounded&quot;:0};" vertex="1" parent="bg2msgem7Z4zpFXIcjBG-39">
          <mxGeometry x="45" y="180" width="10" height="220" as="geometry" />
        </mxCell>
        <mxCell id="jdp2tFiGNUv5h36sgg2k-23" value="" style="html=1;points=[[0,0,0,0,5],[0,1,0,0,-5],[1,0,0,0,5],[1,1,0,0,-5]];perimeter=orthogonalPerimeter;outlineConnect=0;targetShapes=umlLifeline;portConstraint=eastwest;newEdgeStyle={&quot;curved&quot;:0,&quot;rounded&quot;:0};" vertex="1" parent="bg2msgem7Z4zpFXIcjBG-39">
          <mxGeometry x="45.97" y="510" width="10" height="60" as="geometry" />
        </mxCell>
        <mxCell id="jdp2tFiGNUv5h36sgg2k-59" value="" style="html=1;points=[[0,0,0,0,5],[0,1,0,0,-5],[1,0,0,0,5],[1,1,0,0,-5]];perimeter=orthogonalPerimeter;outlineConnect=0;targetShapes=umlLifeline;portConstraint=eastwest;newEdgeStyle={&quot;curved&quot;:0,&quot;rounded&quot;:0};" vertex="1" parent="bg2msgem7Z4zpFXIcjBG-39">
          <mxGeometry x="49.97" y="236" width="10" height="19" as="geometry" />
        </mxCell>
        <mxCell id="jdp2tFiGNUv5h36sgg2k-60" value="" style="html=1;points=[[0,0,0,0,5],[0,1,0,0,-5],[1,0,0,0,5],[1,1,0,0,-5]];perimeter=orthogonalPerimeter;outlineConnect=0;targetShapes=umlLifeline;portConstraint=eastwest;newEdgeStyle={&quot;curved&quot;:0,&quot;rounded&quot;:0};" vertex="1" parent="bg2msgem7Z4zpFXIcjBG-39">
          <mxGeometry x="49.97000000000003" y="543" width="10" height="19" as="geometry" />
        </mxCell>
        <mxCell id="bg2msgem7Z4zpFXIcjBG-34" value=":UI" style="shape=umlLifeline;perimeter=lifelinePerimeter;whiteSpace=wrap;html=1;container=1;dropTarget=0;collapsible=0;recursiveResize=0;outlineConnect=0;portConstraint=eastwest;newEdgeStyle={&quot;curved&quot;:0,&quot;rounded&quot;:0};" vertex="1" parent="1">
          <mxGeometry x="-759.89" y="30" width="100" height="1140" as="geometry" />
        </mxCell>
        <mxCell id="bg2msgem7Z4zpFXIcjBG-35" value="" style="html=1;points=[[0,0,0,0,5],[0,1,0,0,-5],[1,0,0,0,5],[1,1,0,0,-5]];perimeter=orthogonalPerimeter;outlineConnect=0;targetShapes=umlLifeline;portConstraint=eastwest;newEdgeStyle={&quot;curved&quot;:0,&quot;rounded&quot;:0};" vertex="1" parent="bg2msgem7Z4zpFXIcjBG-34">
          <mxGeometry x="45" y="90" width="10" height="50" as="geometry" />
        </mxCell>
        <mxCell id="jdp2tFiGNUv5h36sgg2k-14" value="" style="html=1;points=[[0,0,0,0,5],[0,1,0,0,-5],[1,0,0,0,5],[1,1,0,0,-5]];perimeter=orthogonalPerimeter;outlineConnect=0;targetShapes=umlLifeline;portConstraint=eastwest;newEdgeStyle={&quot;curved&quot;:0,&quot;rounded&quot;:0};" vertex="1" parent="bg2msgem7Z4zpFXIcjBG-34">
          <mxGeometry x="45" y="160" width="10" height="50" as="geometry" />
        </mxCell>
        <mxCell id="jdp2tFiGNUv5h36sgg2k-20" value="" style="html=1;points=[[0,0,0,0,5],[0,1,0,0,-5],[1,0,0,0,5],[1,1,0,0,-5]];perimeter=orthogonalPerimeter;outlineConnect=0;targetShapes=umlLifeline;portConstraint=eastwest;newEdgeStyle={&quot;curved&quot;:0,&quot;rounded&quot;:0};" vertex="1" parent="bg2msgem7Z4zpFXIcjBG-34">
          <mxGeometry x="45" y="500" width="10" height="90" as="geometry" />
        </mxCell>
        <mxCell id="jdp2tFiGNUv5h36sgg2k-21" value="顯示資料庫資料" style="html=1;verticalAlign=bottom;labelBackgroundColor=none;endArrow=open;endFill=0;dashed=1;rounded=0;" edge="1" parent="bg2msgem7Z4zpFXIcjBG-34">
          <mxGeometry width="160" relative="1" as="geometry">
            <mxPoint x="45.000000000000114" y="580" as="sourcePoint" />
            <mxPoint x="-104.97000000000014" y="580" as="targetPoint" />
          </mxGeometry>
        </mxCell>
        <mxCell id="jdp2tFiGNUv5h36sgg2k-22" value="檢查資料庫()" style="html=1;verticalAlign=bottom;endArrow=block;curved=0;rounded=0;" edge="1" parent="bg2msgem7Z4zpFXIcjBG-34">
          <mxGeometry x="0.0032" width="80" relative="1" as="geometry">
            <mxPoint x="-104.97000000000003" y="510" as="sourcePoint" />
            <mxPoint x="44.889999999999986" y="510" as="targetPoint" />
            <mxPoint as="offset" />
          </mxGeometry>
        </mxCell>
        <mxCell id="jdp2tFiGNUv5h36sgg2k-45" value="選擇重新爬取資料()" style="html=1;verticalAlign=bottom;endArrow=block;curved=0;rounded=0;" edge="1" parent="bg2msgem7Z4zpFXIcjBG-34">
          <mxGeometry x="0.0032" width="80" relative="1" as="geometry">
            <mxPoint x="-104.86000000000001" y="874" as="sourcePoint" />
            <mxPoint x="45" y="874" as="targetPoint" />
            <mxPoint as="offset" />
          </mxGeometry>
        </mxCell>
        <mxCell id="jdp2tFiGNUv5h36sgg2k-46" value="" style="html=1;points=[[0,0,0,0,5],[0,1,0,0,-5],[1,0,0,0,5],[1,1,0,0,-5]];perimeter=orthogonalPerimeter;outlineConnect=0;targetShapes=umlLifeline;portConstraint=eastwest;newEdgeStyle={&quot;curved&quot;:0,&quot;rounded&quot;:0};" vertex="1" parent="bg2msgem7Z4zpFXIcjBG-34">
          <mxGeometry x="45" y="860" width="10" height="90" as="geometry" />
        </mxCell>
        <mxCell id="jdp2tFiGNUv5h36sgg2k-47" value="" style="html=1;points=[[0,0,0,0,5],[0,1,0,0,-5],[1,0,0,0,5],[1,1,0,0,-5]];perimeter=orthogonalPerimeter;outlineConnect=0;targetShapes=umlLifeline;portConstraint=eastwest;newEdgeStyle={&quot;curved&quot;:0,&quot;rounded&quot;:0};" vertex="1" parent="bg2msgem7Z4zpFXIcjBG-34">
          <mxGeometry x="206.86" y="874" width="10" height="50" as="geometry" />
        </mxCell>
        <mxCell id="jdp2tFiGNUv5h36sgg2k-48" value="爬取資料()" style="html=1;verticalAlign=bottom;endArrow=block;curved=0;rounded=0;" edge="1" parent="bg2msgem7Z4zpFXIcjBG-34">
          <mxGeometry x="0.0032" width="80" relative="1" as="geometry">
            <mxPoint x="55" y="884" as="sourcePoint" />
            <mxPoint x="204.8599999999999" y="884" as="targetPoint" />
            <mxPoint as="offset" />
          </mxGeometry>
        </mxCell>
        <mxCell id="jdp2tFiGNUv5h36sgg2k-58" value="" style="endArrow=none;dashed=1;html=1;rounded=0;" edge="1" parent="1">
          <mxGeometry width="50" height="50" relative="1" as="geometry">
            <mxPoint x="-870" y="1170" as="sourcePoint" />
            <mxPoint x="-870" y="100" as="targetPoint" />
          </mxGeometry>
        </mxCell>
        <mxCell id="bg2msgem7Z4zpFXIcjBG-2" value="：管理者" style="shape=umlActor;verticalLabelPosition=bottom;verticalAlign=top;html=1;" vertex="1" parent="1">
          <mxGeometry x="-884.8600000000001" y="11" width="30" height="60" as="geometry" />
        </mxCell>
        <mxCell id="bg2msgem7Z4zpFXIcjBG-7" value="&lt;font style=&quot;font-size: 16px;&quot;&gt;爬蟲資料確認循序圖&lt;/font&gt;" style="text;html=1;align=center;verticalAlign=middle;resizable=0;points=[];autosize=1;strokeColor=none;fillColor=none;" vertex="1" parent="1">
          <mxGeometry x="-759.8900000000001" y="-40" width="170" height="30" as="geometry" />
        </mxCell>
        <mxCell id="bg2msgem7Z4zpFXIcjBG-10" value="" style="html=1;points=[[0,0,0,0,5],[0,1,0,0,-5],[1,0,0,0,5],[1,1,0,0,-5]];perimeter=orthogonalPerimeter;outlineConnect=0;targetShapes=umlLifeline;portConstraint=eastwest;newEdgeStyle={&quot;curved&quot;:0,&quot;rounded&quot;:0};" vertex="1" parent="1">
          <mxGeometry x="-874.86" y="108.5" width="10" height="991.5" as="geometry" />
        </mxCell>
        <mxCell id="bg2msgem7Z4zpFXIcjBG-50" value="alt&amp;nbsp;" style="shape=umlFrame;whiteSpace=wrap;html=1;pointerEvents=0;" vertex="1" parent="1">
          <mxGeometry x="-1010" y="290" width="648" height="850" as="geometry" />
        </mxCell>
        <mxCell id="bg2msgem7Z4zpFXIcjBG-55" value="[驗證失敗]" style="text;align=center;fontStyle=1;verticalAlign=middle;spacingLeft=3;spacingRight=3;strokeColor=none;rotatable=0;points=[[0,0.5],[1,0.5]];portConstraint=eastwest;html=1;" vertex="1" parent="1">
          <mxGeometry x="-1016" y="320" width="80" height="26" as="geometry" />
        </mxCell>
        <mxCell id="bg2msgem7Z4zpFXIcjBG-56" value="[驗證成功]" style="text;align=center;fontStyle=1;verticalAlign=middle;spacingLeft=3;spacingRight=3;strokeColor=none;rotatable=0;points=[[0,0.5],[1,0.5]];portConstraint=eastwest;html=1;" vertex="1" parent="1">
          <mxGeometry x="-1016" y="406" width="80" height="26" as="geometry" />
        </mxCell>
        <mxCell id="bg2msgem7Z4zpFXIcjBG-60" value="" style="endArrow=none;dashed=1;html=1;rounded=0;exitX=0.004;exitY=0.122;exitDx=0;exitDy=0;exitPerimeter=0;entryX=0.998;entryY=0.123;entryDx=0;entryDy=0;entryPerimeter=0;" edge="1" parent="1" target="bg2msgem7Z4zpFXIcjBG-50" source="bg2msgem7Z4zpFXIcjBG-50">
          <mxGeometry width="50" height="50" relative="1" as="geometry">
            <mxPoint x="-970" y="395" as="sourcePoint" />
            <mxPoint x="-370" y="394" as="targetPoint" />
          </mxGeometry>
        </mxCell>
        <mxCell id="jdp2tFiGNUv5h36sgg2k-2" value="輸入帳號密碼(帳號、密碼)" style="html=1;verticalAlign=bottom;endArrow=block;curved=0;rounded=0;" edge="1" parent="1" target="jdp2tFiGNUv5h36sgg2k-14">
          <mxGeometry width="80" relative="1" as="geometry">
            <mxPoint x="-864.86" y="200" as="sourcePoint" />
            <mxPoint x="-720" y="200" as="targetPoint" />
          </mxGeometry>
        </mxCell>
        <mxCell id="jdp2tFiGNUv5h36sgg2k-4" value="顯示管理者登入頁面" style="html=1;verticalAlign=bottom;labelBackgroundColor=none;endArrow=open;endFill=0;dashed=1;rounded=0;" edge="1" parent="1">
          <mxGeometry width="160" relative="1" as="geometry">
            <mxPoint x="-714.8899999999999" y="160" as="sourcePoint" />
            <mxPoint x="-864.8600000000001" y="160" as="targetPoint" />
          </mxGeometry>
        </mxCell>
        <mxCell id="jdp2tFiGNUv5h36sgg2k-5" value="" style="edgeStyle=segmentEdgeStyle;endArrow=classic;html=1;curved=0;rounded=0;endSize=8;startSize=8;sourcePerimeterSpacing=0;targetPerimeterSpacing=0;" edge="1" parent="1" target="bg2msgem7Z4zpFXIcjBG-40">
          <mxGeometry width="100" relative="1" as="geometry">
            <mxPoint x="-543" y="250" as="sourcePoint" />
            <mxPoint x="-443" y="290" as="targetPoint" />
            <Array as="points">
              <mxPoint x="-493" y="250" />
              <mxPoint x="-493" y="270" />
            </Array>
          </mxGeometry>
        </mxCell>
        <mxCell id="jdp2tFiGNUv5h36sgg2k-6" value="查詢帳號密碼()" style="text;html=1;align=center;verticalAlign=middle;resizable=0;points=[];autosize=1;strokeColor=none;fillColor=none;" vertex="1" parent="1">
          <mxGeometry x="-498.41" y="245" width="100" height="30" as="geometry" />
        </mxCell>
        <mxCell id="jdp2tFiGNUv5h36sgg2k-8" value="驗證成功" style="html=1;verticalAlign=bottom;labelBackgroundColor=none;endArrow=open;endFill=0;dashed=1;rounded=0;" edge="1" parent="1">
          <mxGeometry width="160" relative="1" as="geometry">
            <mxPoint x="-554.4399999999998" y="423" as="sourcePoint" />
            <mxPoint x="-704.4100000000001" y="423" as="targetPoint" />
          </mxGeometry>
        </mxCell>
        <mxCell id="jdp2tFiGNUv5h36sgg2k-9" value="要求重新輸入帳號密碼" style="html=1;verticalAlign=bottom;labelBackgroundColor=none;endArrow=open;endFill=0;dashed=1;rounded=0;" edge="1" parent="1">
          <mxGeometry width="160" relative="1" as="geometry">
            <mxPoint x="-714.8899999999999" y="357.66" as="sourcePoint" />
            <mxPoint x="-864.8600000000001" y="357.66" as="targetPoint" />
          </mxGeometry>
        </mxCell>
        <mxCell id="jdp2tFiGNUv5h36sgg2k-10" value="顯示管理者系統頁面" style="html=1;verticalAlign=bottom;labelBackgroundColor=none;endArrow=open;endFill=0;dashed=1;rounded=0;" edge="1" parent="1">
          <mxGeometry width="160" relative="1" as="geometry">
            <mxPoint x="-714.8899999999999" y="435.66" as="sourcePoint" />
            <mxPoint x="-864.8600000000001" y="435.66" as="targetPoint" />
          </mxGeometry>
        </mxCell>
        <mxCell id="jdp2tFiGNUv5h36sgg2k-11" value="驗證失敗" style="html=1;verticalAlign=bottom;labelBackgroundColor=none;endArrow=open;endFill=0;dashed=1;rounded=0;" edge="1" parent="1">
          <mxGeometry width="160" relative="1" as="geometry">
            <mxPoint x="-552.4399999999998" y="320" as="sourcePoint" />
            <mxPoint x="-702.4100000000001" y="320" as="targetPoint" />
          </mxGeometry>
        </mxCell>
        <mxCell id="jdp2tFiGNUv5h36sgg2k-12" value="進入管理者登入頁面()" style="html=1;verticalAlign=bottom;endArrow=block;curved=0;rounded=0;" edge="1" parent="1">
          <mxGeometry x="0.0032" width="80" relative="1" as="geometry">
            <mxPoint x="-864.86" y="130" as="sourcePoint" />
            <mxPoint x="-715" y="130" as="targetPoint" />
            <mxPoint as="offset" />
          </mxGeometry>
        </mxCell>
        <mxCell id="jdp2tFiGNUv5h36sgg2k-13" value="驗證帳號密碼(帳號、密碼)" style="html=1;verticalAlign=bottom;endArrow=block;curved=0;rounded=0;" edge="1" parent="1">
          <mxGeometry width="80" relative="1" as="geometry">
            <mxPoint x="-702.3" y="220" as="sourcePoint" />
            <mxPoint x="-552.44" y="220" as="targetPoint" />
          </mxGeometry>
        </mxCell>
        <mxCell id="jdp2tFiGNUv5h36sgg2k-15" value="" style="html=1;points=[[0,0,0,0,5],[0,1,0,0,-5],[1,0,0,0,5],[1,1,0,0,-5]];perimeter=orthogonalPerimeter;outlineConnect=0;targetShapes=umlLifeline;portConstraint=eastwest;newEdgeStyle={&quot;curved&quot;:0,&quot;rounded&quot;:0};" vertex="1" parent="1">
          <mxGeometry x="-714.89" y="310" width="10" height="60" as="geometry" />
        </mxCell>
        <mxCell id="jdp2tFiGNUv5h36sgg2k-16" value="" style="html=1;points=[[0,0,0,0,5],[0,1,0,0,-5],[1,0,0,0,5],[1,1,0,0,-5]];perimeter=orthogonalPerimeter;outlineConnect=0;targetShapes=umlLifeline;portConstraint=eastwest;newEdgeStyle={&quot;curved&quot;:0,&quot;rounded&quot;:0};" vertex="1" parent="1">
          <mxGeometry x="-714.89" y="406" width="10" height="44" as="geometry" />
        </mxCell>
        <mxCell id="jdp2tFiGNUv5h36sgg2k-17" value="" style="html=1;points=[[0,0,0,0,5],[0,1,0,0,-5],[1,0,0,0,5],[1,1,0,0,-5]];perimeter=orthogonalPerimeter;outlineConnect=0;targetShapes=umlLifeline;portConstraint=eastwest;newEdgeStyle={&quot;curved&quot;:0,&quot;rounded&quot;:0};" vertex="1" parent="1">
          <mxGeometry x="-714.89" y="460" width="10" height="50" as="geometry" />
        </mxCell>
        <mxCell id="jdp2tFiGNUv5h36sgg2k-18" value="顯示資料管理頁面" style="html=1;verticalAlign=bottom;labelBackgroundColor=none;endArrow=open;endFill=0;dashed=1;rounded=0;" edge="1" parent="1">
          <mxGeometry width="160" relative="1" as="geometry">
            <mxPoint x="-714.8899999999999" y="500" as="sourcePoint" />
            <mxPoint x="-864.8600000000001" y="500" as="targetPoint" />
          </mxGeometry>
        </mxCell>
        <mxCell id="jdp2tFiGNUv5h36sgg2k-19" value="進入資料管理頁面()" style="html=1;verticalAlign=bottom;endArrow=block;curved=0;rounded=0;" edge="1" parent="1">
          <mxGeometry x="0.0032" width="80" relative="1" as="geometry">
            <mxPoint x="-864.86" y="470" as="sourcePoint" />
            <mxPoint x="-715" y="470" as="targetPoint" />
            <mxPoint as="offset" />
          </mxGeometry>
        </mxCell>
        <mxCell id="jdp2tFiGNUv5h36sgg2k-24" value="查詢資料庫()" style="html=1;verticalAlign=bottom;endArrow=block;curved=0;rounded=0;" edge="1" parent="1">
          <mxGeometry x="0.0032" width="80" relative="1" as="geometry">
            <mxPoint x="-702.3" y="550" as="sourcePoint" />
            <mxPoint x="-552.44" y="550" as="targetPoint" />
            <mxPoint as="offset" />
          </mxGeometry>
        </mxCell>
        <mxCell id="jdp2tFiGNUv5h36sgg2k-26" value="" style="edgeStyle=segmentEdgeStyle;endArrow=classic;html=1;curved=0;rounded=0;endSize=8;startSize=8;sourcePerimeterSpacing=0;targetPerimeterSpacing=0;" edge="1" parent="1">
          <mxGeometry width="100" relative="1" as="geometry">
            <mxPoint x="-543" y="555" as="sourcePoint" />
            <mxPoint x="-543" y="575" as="targetPoint" />
            <Array as="points">
              <mxPoint x="-493" y="555" />
              <mxPoint x="-493" y="575" />
            </Array>
          </mxGeometry>
        </mxCell>
        <mxCell id="jdp2tFiGNUv5h36sgg2k-27" value="查詢資料庫()" style="text;html=1;align=center;verticalAlign=middle;resizable=0;points=[];autosize=1;strokeColor=none;fillColor=none;" vertex="1" parent="1">
          <mxGeometry x="-493.41" y="550" width="90" height="30" as="geometry" />
        </mxCell>
        <mxCell id="jdp2tFiGNUv5h36sgg2k-28" value="傳送資料庫資料" style="html=1;verticalAlign=bottom;labelBackgroundColor=none;endArrow=open;endFill=0;dashed=1;rounded=0;" edge="1" parent="1">
          <mxGeometry width="160" relative="1" as="geometry">
            <mxPoint x="-552.4399999999998" y="595" as="sourcePoint" />
            <mxPoint x="-702.4100000000001" y="595" as="targetPoint" />
          </mxGeometry>
        </mxCell>
        <mxCell id="jdp2tFiGNUv5h36sgg2k-29" value="alt&amp;nbsp;" style="shape=umlFrame;whiteSpace=wrap;html=1;pointerEvents=0;" vertex="1" parent="1">
          <mxGeometry x="-1000" y="630" width="625" height="500" as="geometry" />
        </mxCell>
        <mxCell id="jdp2tFiGNUv5h36sgg2k-32" value="[資料正確]" style="text;align=center;fontStyle=1;verticalAlign=middle;spacingLeft=3;spacingRight=3;strokeColor=none;rotatable=0;points=[[0,0.5],[1,0.5]];portConstraint=eastwest;html=1;" vertex="1" parent="1">
          <mxGeometry x="-1000" y="660" width="80" height="26" as="geometry" />
        </mxCell>
        <mxCell id="jdp2tFiGNUv5h36sgg2k-33" value="[資料錯誤]" style="text;align=center;fontStyle=1;verticalAlign=middle;spacingLeft=3;spacingRight=3;strokeColor=none;rotatable=0;points=[[0,0.5],[1,0.5]];portConstraint=eastwest;html=1;" vertex="1" parent="1">
          <mxGeometry x="-1000" y="740" width="80" height="26" as="geometry" />
        </mxCell>
        <mxCell id="jdp2tFiGNUv5h36sgg2k-34" value="" style="endArrow=none;dashed=1;html=1;rounded=0;exitX=0.005;exitY=-0.066;exitDx=0;exitDy=0;exitPerimeter=0;entryX=1;entryY=0.217;entryDx=0;entryDy=0;entryPerimeter=0;" edge="1" parent="1" source="jdp2tFiGNUv5h36sgg2k-33" target="jdp2tFiGNUv5h36sgg2k-29">
          <mxGeometry width="50" height="50" relative="1" as="geometry">
            <mxPoint x="-981" y="741" as="sourcePoint" />
            <mxPoint x="-381" y="740" as="targetPoint" />
          </mxGeometry>
        </mxCell>
        <mxCell id="jdp2tFiGNUv5h36sgg2k-35" value="選擇資料無誤()" style="html=1;verticalAlign=bottom;endArrow=block;curved=0;rounded=0;" edge="1" parent="1">
          <mxGeometry x="0.0032" width="80" relative="1" as="geometry">
            <mxPoint x="-864.86" y="669.66" as="sourcePoint" />
            <mxPoint x="-715" y="669.66" as="targetPoint" />
            <mxPoint as="offset" />
          </mxGeometry>
        </mxCell>
        <mxCell id="jdp2tFiGNUv5h36sgg2k-36" value="" style="html=1;points=[[0,0,0,0,5],[0,1,0,0,-5],[1,0,0,0,5],[1,1,0,0,-5]];perimeter=orthogonalPerimeter;outlineConnect=0;targetShapes=umlLifeline;portConstraint=eastwest;newEdgeStyle={&quot;curved&quot;:0,&quot;rounded&quot;:0};" vertex="1" parent="1">
          <mxGeometry x="-714.89" y="660" width="10" height="60" as="geometry" />
        </mxCell>
        <mxCell id="jdp2tFiGNUv5h36sgg2k-37" value="爬蟲資料確認完成" style="html=1;verticalAlign=bottom;labelBackgroundColor=none;endArrow=open;endFill=0;dashed=1;rounded=0;" edge="1" parent="1">
          <mxGeometry width="160" relative="1" as="geometry">
            <mxPoint x="-714.8899999999999" y="704.66" as="sourcePoint" />
            <mxPoint x="-864.8600000000001" y="704.66" as="targetPoint" />
          </mxGeometry>
        </mxCell>
        <mxCell id="jdp2tFiGNUv5h36sgg2k-38" value="移除不完整資料()" style="html=1;verticalAlign=bottom;endArrow=block;curved=0;rounded=0;" edge="1" parent="1">
          <mxGeometry x="0.0032" width="80" relative="1" as="geometry">
            <mxPoint x="-864.75" y="780" as="sourcePoint" />
            <mxPoint x="-714.89" y="780" as="targetPoint" />
            <mxPoint as="offset" />
          </mxGeometry>
        </mxCell>
        <mxCell id="jdp2tFiGNUv5h36sgg2k-39" value="" style="html=1;points=[[0,0,0,0,5],[0,1,0,0,-5],[1,0,0,0,5],[1,1,0,0,-5]];perimeter=orthogonalPerimeter;outlineConnect=0;targetShapes=umlLifeline;portConstraint=eastwest;newEdgeStyle={&quot;curved&quot;:0,&quot;rounded&quot;:0};" vertex="1" parent="1">
          <mxGeometry x="-714.89" y="766" width="10" height="94" as="geometry" />
        </mxCell>
        <mxCell id="jdp2tFiGNUv5h36sgg2k-40" value="" style="html=1;points=[[0,0,0,0,5],[0,1,0,0,-5],[1,0,0,0,5],[1,1,0,0,-5]];perimeter=orthogonalPerimeter;outlineConnect=0;targetShapes=umlLifeline;portConstraint=eastwest;newEdgeStyle={&quot;curved&quot;:0,&quot;rounded&quot;:0};" vertex="1" parent="1">
          <mxGeometry x="-553.03" y="780" width="10" height="50" as="geometry" />
        </mxCell>
        <mxCell id="jdp2tFiGNUv5h36sgg2k-41" value="刪除不完整資料()" style="html=1;verticalAlign=bottom;endArrow=block;curved=0;rounded=0;" edge="1" parent="1">
          <mxGeometry x="0.0032" width="80" relative="1" as="geometry">
            <mxPoint x="-704.89" y="790" as="sourcePoint" />
            <mxPoint x="-555.0300000000001" y="790" as="targetPoint" />
            <mxPoint as="offset" />
          </mxGeometry>
        </mxCell>
        <mxCell id="jdp2tFiGNUv5h36sgg2k-42" value="資料刪除成功" style="html=1;verticalAlign=bottom;labelBackgroundColor=none;endArrow=open;endFill=0;dashed=1;rounded=0;" edge="1" parent="1">
          <mxGeometry width="160" relative="1" as="geometry">
            <mxPoint x="-555.0299999999999" y="820" as="sourcePoint" />
            <mxPoint x="-705.0000000000001" y="820" as="targetPoint" />
          </mxGeometry>
        </mxCell>
        <mxCell id="jdp2tFiGNUv5h36sgg2k-43" value="顯示資料刪除成功" style="html=1;verticalAlign=bottom;labelBackgroundColor=none;endArrow=open;endFill=0;dashed=1;rounded=0;" edge="1" parent="1">
          <mxGeometry width="160" relative="1" as="geometry">
            <mxPoint x="-714.8899999999999" y="830" as="sourcePoint" />
            <mxPoint x="-864.8600000000001" y="830" as="targetPoint" />
          </mxGeometry>
        </mxCell>
        <mxCell id="jdp2tFiGNUv5h36sgg2k-44" value="alt&amp;nbsp;" style="shape=umlFrame;whiteSpace=wrap;html=1;pointerEvents=0;" vertex="1" parent="1">
          <mxGeometry x="-981.5" y="880" width="591" height="230" as="geometry" />
        </mxCell>
        <mxCell id="jdp2tFiGNUv5h36sgg2k-49" value="[重新爬取資料]" style="text;align=center;fontStyle=1;verticalAlign=middle;spacingLeft=3;spacingRight=3;strokeColor=none;rotatable=0;points=[[0,0.5],[1,0.5]];portConstraint=eastwest;html=1;" vertex="1" parent="1">
          <mxGeometry x="-976.5" y="917" width="80" height="26" as="geometry" />
        </mxCell>
        <mxCell id="jdp2tFiGNUv5h36sgg2k-50" value="[不重新爬取資料]" style="text;align=center;fontStyle=1;verticalAlign=middle;spacingLeft=3;spacingRight=3;strokeColor=none;rotatable=0;points=[[0,0.5],[1,0.5]];portConstraint=eastwest;html=1;" vertex="1" parent="1">
          <mxGeometry x="-970" y="1020" width="80" height="26" as="geometry" />
        </mxCell>
        <mxCell id="jdp2tFiGNUv5h36sgg2k-51" value="顯示是否重新爬取" style="html=1;verticalAlign=bottom;labelBackgroundColor=none;endArrow=open;endFill=0;dashed=1;rounded=0;" edge="1" parent="1">
          <mxGeometry width="160" relative="1" as="geometry">
            <mxPoint x="-714.8899999999999" y="854" as="sourcePoint" />
            <mxPoint x="-864.8600000000001" y="854" as="targetPoint" />
          </mxGeometry>
        </mxCell>
        <mxCell id="jdp2tFiGNUv5h36sgg2k-52" value="傳送爬取結果" style="html=1;verticalAlign=bottom;labelBackgroundColor=none;endArrow=open;endFill=0;dashed=1;rounded=0;" edge="1" parent="1">
          <mxGeometry width="160" relative="1" as="geometry">
            <mxPoint x="-554.9199999999998" y="943" as="sourcePoint" />
            <mxPoint x="-704.8900000000001" y="943" as="targetPoint" />
          </mxGeometry>
        </mxCell>
        <mxCell id="jdp2tFiGNUv5h36sgg2k-53" value="顯示爬取結果" style="html=1;verticalAlign=bottom;labelBackgroundColor=none;endArrow=open;endFill=0;dashed=1;rounded=0;" edge="1" parent="1">
          <mxGeometry width="160" relative="1" as="geometry">
            <mxPoint x="-714.8899999999999" y="960" as="sourcePoint" />
            <mxPoint x="-864.8600000000001" y="960" as="targetPoint" />
          </mxGeometry>
        </mxCell>
        <mxCell id="jdp2tFiGNUv5h36sgg2k-54" value="" style="endArrow=none;dashed=1;html=1;rounded=0;" edge="1" parent="1">
          <mxGeometry width="50" height="50" relative="1" as="geometry">
            <mxPoint x="-981.5" y="1000.5" as="sourcePoint" />
            <mxPoint x="-390" y="1000" as="targetPoint" />
          </mxGeometry>
        </mxCell>
        <mxCell id="jdp2tFiGNUv5h36sgg2k-55" value="選擇不重新爬取資料()" style="html=1;verticalAlign=bottom;endArrow=block;curved=0;rounded=0;" edge="1" parent="1">
          <mxGeometry x="0.0032" width="80" relative="1" as="geometry">
            <mxPoint x="-864.75" y="1024" as="sourcePoint" />
            <mxPoint x="-714.89" y="1024" as="targetPoint" />
            <mxPoint as="offset" />
          </mxGeometry>
        </mxCell>
        <mxCell id="jdp2tFiGNUv5h36sgg2k-56" value="" style="html=1;points=[[0,0,0,0,5],[0,1,0,0,-5],[1,0,0,0,5],[1,1,0,0,-5]];perimeter=orthogonalPerimeter;outlineConnect=0;targetShapes=umlLifeline;portConstraint=eastwest;newEdgeStyle={&quot;curved&quot;:0,&quot;rounded&quot;:0};" vertex="1" parent="1">
          <mxGeometry x="-714.89" y="1010" width="10" height="70" as="geometry" />
        </mxCell>
        <mxCell id="jdp2tFiGNUv5h36sgg2k-57" value="爬蟲資料確認完成" style="html=1;verticalAlign=bottom;labelBackgroundColor=none;endArrow=open;endFill=0;dashed=1;rounded=0;" edge="1" parent="1">
          <mxGeometry width="160" relative="1" as="geometry">
            <mxPoint x="-714.8899999999999" y="1070" as="sourcePoint" />
            <mxPoint x="-864.8600000000001" y="1070" as="targetPoint" />
          </mxGeometry>
        </mxCell>
      </root>
    </mxGraphModel>
  </diagram>
</mxfile>
